<?xml version="1.0" standalone="no"?>
<!DOCTYPE svg PUBLIC "-//W3C//DTD SVG 20010904//EN"
 "http://www.w3.org/TR/2001/REC-SVG-20010904/DTD/svg10.dtd">
<svg version="1.0" xmlns="http://www.w3.org/2000/svg"
 width="1657.000000pt" height="1657.000000pt" viewBox="0 0 1657.000000 1657.000000"
 preserveAspectRatio="xMidYMid meet">
<metadata>
Created by potrace 1.14, written by Peter Selinger 2001-2017
</metadata>
<g transform="translate(0.000000,1657.000000) scale(0.100000,-0.100000)"
fill="#000000" stroke="none">
<path d="M7918 16015 c-1 -2 -59 -6 -128 -10 -69 -3 -136 -7 -150 -10 -45 -6
-144 -19 -170 -21 -14 -1 -25 -3 -25 -4 0 -2 -44 -10 -65 -11 -8 -1 -46 -8
-85 -16 -38 -8 -81 -17 -95 -19 -48 -9 -195 -45 -210 -51 -8 -3 -24 -8 -35
-10 -72 -12 -534 -181 -585 -213 -13 -8 -15 -80 -16 -540 l0 -530 22 0 23 0 1
-582 c0 -321 0 -1722 0 -3114 l0 -2531 42 1 43 1 3 1543 2 1542 83 0 83 0 0
-1540 c-1 -1018 2 -1541 9 -1543 6 -2 44 -4 85 -3 l74 1 1 205 0 205 110 0
110 0 0 -203 c0 -173 2 -202 15 -203 40 -1 1060 4 1235 6 110 2 495 6 855 10
863 9 877 9 1000 34 533 108 1045 313 1480 594 91 58 283 194 325 228 133 111
167 140 210 179 318 289 571 598 792 965 227 378 413 852 507 1296 3 14 -169
16 -1933 15 l-1935 -1 -34 -90 c-49 -134 -192 -504 -213 -550 -9 -22 -44 -103
-77 -180 -33 -77 -79 -180 -102 -230 -23 -49 -53 -114 -67 -145 -212 -456
-480 -946 -771 -1410 -127 -203 -364 -551 -370 -545 -7 7 -3 1085 4 1096 6 10
7 6370 1 6376 -6 5 -45 12 -49 8z"/>
<path d="M6155 15545 c-33 -19 -72 -40 -87 -46 -17 -6 -25 -16 -21 -22 3 -7 3
-9 -2 -5 -7 7 -63 -17 -75 -31 -3 -3 -22 -15 -42 -26 -21 -11 -38 -23 -38 -27
0 -5 -4 -8 -10 -8 -18 0 -178 -115 -173 -124 4 -5 1 -6 -5 -2 -11 6 -32 -7
-74 -46 -10 -10 -18 -16 -18 -13 0 5 -14 -6 -109 -86 -36 -30 -77 -64 -90 -75
-64 -51 -310 -298 -305 -306 3 -4 2 -7 -3 -6 -4 2 -18 -7 -31 -20 -12 -12 -20
-22 -18 -22 2 0 -23 -28 -55 -62 -32 -35 -59 -66 -59 -70 0 -3 -13 -21 -29
-40 -17 -18 -57 -71 -90 -118 -33 -47 -65 -91 -71 -97 -21 -25 -130 -203 -130
-212 0 -5 -4 -11 -8 -13 -19 -7 -219 -394 -247 -478 -1 -3 -6 -16 -12 -30 -6
-14 -21 -50 -32 -80 -12 -30 -26 -64 -32 -75 -6 -12 -11 -27 -13 -35 -2 -8 -6
-22 -9 -30 -17 -40 -72 -219 -104 -340 l-37 -135 -3 -580 c-2 -319 -6 -587
-10 -595 -3 -8 -7 -626 -7 -1372 -1 -886 -5 -1360 -11 -1366 -6 -5 -55 -33
-110 -62 -55 -29 -113 -60 -130 -70 -16 -10 -70 -39 -120 -65 -127 -68 -211
-112 -280 -150 -56 -31 -240 -129 -420 -225 -44 -24 -111 -60 -148 -82 -38
-21 -70 -38 -72 -38 -2 0 -135 -71 -297 -158 -161 -87 -326 -176 -365 -197
-40 -20 -70 -41 -67 -46 3 -5 118 -65 257 -133 139 -68 531 -262 872 -431 341
-168 680 -336 752 -372 73 -36 134 -68 134 -72 1 -3 3 -577 4 -1276 2 -964 5
-1282 14 -1320 7 -27 14 -58 16 -67 21 -103 101 -353 156 -493 7 -16 13 -36
15 -44 1 -7 7 -18 13 -24 6 -6 11 -19 11 -29 0 -10 4 -18 8 -18 4 0 8 90 7
200 l-1 200 41 1 c142 2 278 0 282 -5 3 -3 5 -234 5 -513 0 -524 0 -533 40
-577 10 -11 18 -23 18 -28 0 -11 70 -101 71 -91 0 4 2 838 4 1853 2 1015 4
1877 4 1916 l1 72 125 1 125 1 0 -763 c2 -3495 2 -3401 18 -3427 9 -14 43 -53
77 -87 59 -61 61 -62 64 -35 1 15 3 1194 4 2620 l2 2592 -491 0 -491 0 -69 29
c-63 26 -267 114 -339 146 -117 53 -354 154 -372 160 -13 3 -23 10 -23 14 0 7
611 376 735 445 10 6 25 17 33 24 7 6 21 12 30 12 9 0 234 1 500 2 426 2 482
4 483 18 0 8 1 368 2 800 l2 785 100 0 100 0 3 -797 c1 -439 5 -798 10 -799 4
0 44 -1 89 -2 66 -2 83 1 85 13 2 8 3 792 3 1743 l-1 1727 86 0 87 0 -1 -1737
0 -1738 52 -3 52 -3 0 2380 0 2381 38 1 c20 1 45 2 55 2 9 0 17 7 18 16 1 16
0 148 -5 754 l-2 297 53 0 53 0 1 -92 c0 -51 0 -1363 -1 -2915 l-1 -2823 73 0
73 0 -2 3532 c-2 1943 -3 3570 -3 3616 0 59 -3 82 -12 82 -7 0 -40 -16 -73
-35z"/>
<path d="M5430 4791 l0 -2719 23 -15 c12 -9 37 -29 56 -46 19 -16 39 -27 44
-24 6 3 8 2 5 -3 -3 -5 7 -19 21 -31 l27 -21 2 26 c2 15 4 1270 5 2790 l2
2762 -92 0 -93 0 0 -2719z"/>
<path d="M5789 7488 c0 -13 -1 -1295 -1 -2850 0 -2566 2 -2829 16 -2844 9 -8
16 -13 16 -10 0 3 9 -2 20 -12 12 -9 23 -15 27 -14 3 2 10 -2 14 -10 5 -7 9
1286 9 2875 l0 2887 -50 0 c-45 0 -50 -2 -51 -22z"/>
<path d="M6103 4564 c2 -2933 2 -2947 22 -2958 11 -6 22 -14 25 -17 3 -3 21
-11 40 -19 19 -8 38 -19 42 -24 5 -7 8 -3 8 9 1 32 2 5929 1 5943 -1 8 -22 12
-70 12 l-70 0 2 -2946z"/>
<path d="M6402 4560 l2 -2951 21 -4 c27 -5 55 -3 56 4 1 3 3 1332 5 2954 l4
2947 -45 0 -45 0 2 -2950z"/>
<path d="M6657 4453 c1 -1682 2 -3066 2 -3076 1 -10 5 -15 11 -12 6 3 10 2 10
-4 0 -5 8 -10 18 -11 9 -1 40 -2 68 -4 l51 -3 1 1591 c2 1664 3 4528 2 4559 0
15 -11 17 -82 17 l-83 0 2 -3057z"/>
<path d="M7049 7506 c-3 -3 -3 -5939 0 -6208 1 -57 2 -58 29 -58 16 0 32 -3
36 -7 3 -4 23 -8 44 -10 l37 -3 1 2258 1 2257 151 3 152 3 1 -33 c0 -18 1
-1047 3 -2285 1 -1239 5 -2255 7 -2258 3 -2 28 -7 56 -11 45 -5 51 -4 50 13 0
10 1 466 2 1013 l1 996 70 -1 c38 0 72 -4 76 -8 4 -4 7 -463 7 -1021 l0 -1013
51 -2 c68 -3 98 -4 116 -2 13 1 15 349 15 3071 0 1688 3 3070 6 3070 4 0 14
-17 22 -37 8 -21 29 -67 45 -103 17 -36 58 -128 92 -205 75 -169 80 -182 119
-268 17 -38 31 -70 31 -73 0 -2 9 -23 19 -47 23 -49 156 -363 264 -622 230
-552 681 -1729 783 -2045 8 -25 19 -54 24 -65 5 -11 30 -83 56 -160 26 -77 51
-142 56 -143 4 -2 6 -7 3 -12 -3 -4 4 -34 16 -67 20 -54 30 -85 30 -90 0 -1
10 -26 21 -55 11 -29 22 -62 25 -73 3 -11 7 -27 11 -35 3 -8 6 -17 7 -20 2
-10 37 -116 42 -130 3 -8 7 -19 8 -25 2 -5 19 -57 38 -115 19 -58 62 -193 97
-300 34 -107 64 -202 67 -210 3 -8 7 -20 8 -26 3 -12 60 -198 78 -254 6 -19
11 -37 12 -40 0 -3 4 -11 8 -18 5 -6 6 -12 3 -12 -3 0 -1 -12 5 -27 6 -16 17
-53 25 -83 8 -30 17 -62 21 -70 3 -8 7 -17 8 -20 11 -42 37 -129 42 -140 3 -8
7 -19 8 -25 2 -18 18 -70 23 -80 4 -5 7 -16 8 -25 2 -8 5 -22 7 -30 2 -8 8
-30 12 -48 4 -18 12 -35 16 -38 5 -3 7 -9 4 -14 -3 -5 0 -21 6 -37 6 -15 13
-39 15 -52 3 -14 8 -29 12 -35 3 -6 7 -17 8 -26 1 -8 5 -26 9 -40 3 -14 8 -36
11 -49 3 -14 8 -29 12 -35 6 -10 8 -15 11 -34 1 -8 103 -8 1981 3 624 4 1338
9 1585 10 248 2 455 3 462 4 14 1 12 14 -22 131 -9 30 -18 64 -20 75 -3 11
-14 52 -25 90 -23 75 -28 96 -36 134 -3 14 -8 29 -12 35 -3 6 -8 20 -9 30 -2
11 -11 40 -19 65 -9 25 -17 51 -18 56 -5 18 -27 100 -31 113 -3 7 -3 13 -2 15
1 2 -6 16 -17 31 -10 16 -13 25 -6 21 9 -5 8 -1 -1 16 -7 13 -13 29 -14 34 -1
23 -41 135 -48 135 -5 0 -6 4 -3 8 3 5 -15 67 -39 138 -25 71 -47 138 -50 149
-9 36 -56 170 -66 189 -6 10 -13 30 -15 44 -3 15 -11 33 -17 41 -7 8 -10 16
-8 18 1 2 -2 18 -9 36 -49 135 -59 162 -61 175 0 4 -5 12 -10 18 -5 7 -11 20
-13 30 -3 11 -10 33 -17 49 -7 17 -13 32 -14 35 -1 3 -5 14 -10 25 -4 11 -23
61 -42 110 -20 50 -40 101 -46 115 -6 14 -11 27 -12 30 -1 3 -7 18 -13 33 -7
16 -12 30 -12 31 0 2 -9 24 -20 50 -12 25 -20 47 -19 48 1 2 -4 14 -11 28 -8
14 -15 27 -15 30 -2 6 -22 57 -38 93 -7 15 -16 27 -20 27 -5 0 -5 4 -2 10 3 5
-4 29 -17 52 -12 24 -23 49 -24 57 -2 8 -6 17 -11 20 -4 3 -9 13 -11 21 -2 8
-9 29 -17 45 -7 17 -34 77 -60 135 -26 58 -50 110 -53 115 -4 6 -7 12 -7 15
-6 42 -341 704 -509 1005 -199 355 -505 813 -677 1009 -171 197 -383 400 -548
526 -18 14 -38 30 -44 36 -7 6 -64 49 -127 96 -352 260 -752 482 -1176 652
l-141 56 -1450 0 c-797 0 -1452 -2 -1454 -4z"/>
</g>
</svg>
